<svg width="279" height="57" viewBox="0 0 279 57" fill="none" xmlns="http://www.w3.org/2000/svg">
<rect y="0.5" width="279" height="56" rx="3" fill="#3F4C77"/>
<path d="M104.714 33.708C103.583 33.708 102.554 33.452 101.626 32.94C100.698 32.4173 99.9727 31.7133 99.4501 30.828C98.9274 29.9427 98.6661 28.9667 98.6661 27.9C98.6661 26.8333 98.9274 25.8573 99.4501 24.972C99.9834 24.0867 100.709 23.388 101.626 22.876C102.554 22.3533 103.589 22.092 104.73 22.092C105.765 22.092 106.682 22.3053 107.482 22.732C108.282 23.148 108.933 23.6547 109.434 24.252L107.866 25.644C107.482 25.228 107.045 24.892 106.554 24.636C106.063 24.38 105.466 24.252 104.762 24.252C104.079 24.252 103.455 24.412 102.89 24.732C102.325 25.052 101.877 25.4947 101.546 26.06C101.226 26.6147 101.066 27.228 101.066 27.9C101.066 28.572 101.226 29.1907 101.546 29.756C101.877 30.3107 102.325 30.748 102.89 31.068C103.455 31.388 104.079 31.548 104.762 31.548C105.466 31.548 106.069 31.42 106.57 31.164C107.071 30.8973 107.53 30.5453 107.946 30.108L109.498 31.484C108.975 32.1133 108.309 32.6413 107.498 33.068C106.687 33.4947 105.759 33.708 104.714 33.708ZM114.431 33.676C113.652 33.676 112.943 33.5 112.303 33.148C111.673 32.796 111.177 32.3107 110.815 31.692C110.463 31.0627 110.287 30.38 110.287 29.644C110.287 28.8973 110.463 28.2147 110.815 27.596C111.177 26.9773 111.673 26.492 112.303 26.14C112.943 25.7773 113.652 25.596 114.431 25.596C115.209 25.596 115.913 25.7773 116.543 26.14C117.183 26.492 117.679 26.9773 118.031 27.596C118.393 28.2147 118.575 28.8973 118.575 29.644C118.575 30.38 118.393 31.0627 118.031 31.692C117.679 32.3107 117.183 32.796 116.543 33.148C115.913 33.5 115.209 33.676 114.431 33.676ZM114.431 31.74C114.804 31.74 115.14 31.6493 115.439 31.468C115.737 31.2867 115.972 31.036 116.143 30.716C116.313 30.396 116.399 30.0387 116.399 29.644C116.399 29.2387 116.313 28.8813 116.143 28.572C115.972 28.252 115.737 28.0013 115.439 27.82C115.14 27.6387 114.804 27.548 114.431 27.548C114.057 27.548 113.721 27.6387 113.423 27.82C113.124 28.0013 112.889 28.252 112.719 28.572C112.548 28.8813 112.463 29.2387 112.463 29.644C112.463 30.0387 112.548 30.396 112.719 30.716C112.889 31.036 113.124 31.2867 113.423 31.468C113.721 31.6493 114.057 31.74 114.431 31.74ZM120.141 33.5V25.772H122.253V26.876H122.285C122.477 26.5453 122.781 26.252 123.197 25.996C123.623 25.74 124.098 25.612 124.621 25.612C125.197 25.612 125.703 25.7453 126.141 26.012C126.589 26.2787 126.935 26.6627 127.181 27.164C127.437 27.6653 127.565 28.2573 127.565 28.94V33.5H125.421V29.212C125.421 28.892 125.357 28.62 125.229 28.396C125.111 28.1613 124.941 27.9853 124.717 27.868C124.503 27.74 124.258 27.676 123.981 27.676C123.661 27.676 123.373 27.7507 123.117 27.9C122.861 28.0387 122.658 28.2467 122.509 28.524C122.37 28.7907 122.301 29.1 122.301 29.452V33.5H120.141ZM132.704 33.596C131.861 33.596 131.205 33.356 130.736 32.876C130.277 32.3853 130.048 31.6867 130.048 30.78V27.708H128.688V25.772H129.488C129.754 25.772 129.952 25.6973 130.08 25.548C130.218 25.3987 130.288 25.1693 130.288 24.86V23.26H132.192V25.772H133.952V27.708H132.192V30.46C132.192 30.8333 132.282 31.116 132.464 31.308C132.645 31.5 132.906 31.596 133.248 31.596C133.408 31.596 133.557 31.5747 133.696 31.532C133.845 31.4787 133.968 31.4253 134.064 31.372V33.34C133.925 33.4147 133.728 33.4733 133.472 33.516C133.226 33.5693 132.97 33.596 132.704 33.596ZM137.675 33.66C137.173 33.66 136.725 33.564 136.331 33.372C135.947 33.1693 135.648 32.8973 135.435 32.556C135.221 32.204 135.115 31.8253 135.115 31.42C135.115 30.78 135.328 30.252 135.755 29.836C136.181 29.42 136.779 29.1427 137.547 29.004L141.067 28.364L140.027 29.468L139.995 28.556C139.995 28.3427 139.936 28.1453 139.819 27.964C139.701 27.772 139.536 27.6173 139.323 27.5C139.109 27.3827 138.859 27.324 138.571 27.324C138.197 27.324 137.861 27.4093 137.563 27.58C137.275 27.7507 137.003 27.9693 136.747 28.236L135.547 27.084C135.771 26.828 136.032 26.588 136.331 26.364C136.629 26.14 136.981 25.9587 137.387 25.82C137.792 25.6707 138.235 25.596 138.715 25.596C139.387 25.596 139.979 25.7293 140.491 25.996C141.003 26.2627 141.397 26.6307 141.675 27.1C141.952 27.5587 142.091 28.0707 142.091 28.636V33.5H140.123V32.444H140.091C139.973 32.636 139.797 32.828 139.563 33.02C139.328 33.2013 139.045 33.356 138.715 33.484C138.395 33.6013 138.048 33.66 137.675 33.66ZM138.235 32.028C138.555 32.028 138.848 31.9427 139.115 31.772C139.392 31.6013 139.605 31.3667 139.755 31.068C139.915 30.7587 139.995 30.4173 139.995 30.044V29.132L140.779 29.692L138.203 30.204C137.883 30.268 137.632 30.3853 137.451 30.556C137.269 30.716 137.179 30.908 137.179 31.132C137.179 31.3027 137.221 31.4573 137.307 31.596C137.392 31.724 137.515 31.8307 137.675 31.916C137.835 31.9907 138.021 32.028 138.235 32.028ZM147.727 33.676C146.949 33.676 146.239 33.5 145.599 33.148C144.97 32.796 144.474 32.3107 144.111 31.692C143.759 31.0627 143.583 30.38 143.583 29.644C143.583 28.8973 143.759 28.2147 144.111 27.596C144.474 26.9773 144.97 26.492 145.599 26.14C146.239 25.7773 146.949 25.596 147.727 25.596C148.25 25.596 148.73 25.676 149.167 25.836C149.615 25.996 149.999 26.1933 150.319 26.428C150.639 26.6627 150.901 26.908 151.103 27.164L149.695 28.46C149.461 28.204 149.189 27.9907 148.879 27.82C148.57 27.6387 148.213 27.548 147.807 27.548C147.423 27.548 147.071 27.6387 146.751 27.82C146.442 28.0013 146.197 28.252 146.015 28.572C145.845 28.8813 145.759 29.2387 145.759 29.644C145.759 30.0387 145.845 30.396 146.015 30.716C146.197 31.036 146.442 31.2867 146.751 31.468C147.071 31.6493 147.423 31.74 147.807 31.74C148.223 31.74 148.591 31.6493 148.911 31.468C149.242 31.2867 149.525 31.0573 149.759 30.78L151.167 32.06C150.826 32.4973 150.357 32.876 149.759 33.196C149.162 33.516 148.485 33.676 147.727 33.676ZM155.844 33.596C155.002 33.596 154.346 33.356 153.876 32.876C153.418 32.3853 153.188 31.6867 153.188 30.78V27.708H151.828V25.772H152.628C152.895 25.772 153.092 25.6973 153.22 25.548C153.359 25.3987 153.428 25.1693 153.428 24.86V23.26H155.332V25.772H157.092V27.708H155.332V30.46C155.332 30.8333 155.423 31.116 155.604 31.308C155.786 31.5 156.047 31.596 156.388 31.596C156.548 31.596 156.698 31.5747 156.836 31.532C156.986 31.4787 157.108 31.4253 157.204 31.372V33.34C157.066 33.4147 156.868 33.4733 156.612 33.516C156.367 33.5693 156.111 33.596 155.844 33.596ZM167.435 33.708C166.475 33.708 165.621 33.5053 164.875 33.1C164.128 32.684 163.541 32.1133 163.115 31.388C162.699 30.6627 162.491 29.8467 162.491 28.94V22.3H164.891V28.94C164.891 29.4307 165.003 29.8787 165.227 30.284C165.451 30.6787 165.755 30.988 166.139 31.212C166.523 31.436 166.955 31.548 167.435 31.548C167.883 31.548 168.299 31.436 168.683 31.212C169.077 30.9773 169.387 30.6573 169.611 30.252C169.845 29.8467 169.963 29.4093 169.963 28.94V22.3H172.363V28.94C172.363 29.8467 172.155 30.6627 171.739 31.388C171.323 32.1133 170.736 32.684 169.979 33.1C169.232 33.5053 168.384 33.708 167.435 33.708ZM177.377 33.676C176.875 33.676 176.406 33.6013 175.969 33.452C175.531 33.3027 175.153 33.1107 174.833 32.876C174.513 32.6413 174.262 32.4067 174.081 32.172L175.265 30.988C175.457 31.2227 175.718 31.4413 176.049 31.644C176.39 31.8467 176.742 31.948 177.105 31.948C177.467 31.948 177.745 31.8733 177.937 31.724C178.129 31.5747 178.225 31.388 178.225 31.164C178.225 31.0253 178.166 30.908 178.049 30.812C177.942 30.7053 177.798 30.62 177.617 30.556C177.435 30.4813 177.201 30.396 176.913 30.3C176.411 30.1293 175.99 29.964 175.649 29.804C175.318 29.6333 175.03 29.3987 174.785 29.1C174.55 28.7907 174.433 28.3907 174.433 27.9C174.433 27.4947 174.55 27.116 174.785 26.764C175.03 26.412 175.382 26.1293 175.841 25.916C176.299 25.7027 176.838 25.596 177.457 25.596C177.926 25.596 178.358 25.6547 178.753 25.772C179.147 25.8893 179.483 26.0333 179.761 26.204C180.038 26.364 180.257 26.5347 180.417 26.716L179.249 27.916C179.099 27.7667 178.886 27.6333 178.609 27.516C178.342 27.3987 178.059 27.34 177.761 27.34C177.547 27.34 177.361 27.372 177.201 27.436C177.051 27.4893 176.939 27.5693 176.865 27.676C176.79 27.772 176.753 27.8787 176.753 27.996C176.753 28.124 176.806 28.2413 176.913 28.348C177.03 28.4547 177.174 28.5453 177.345 28.62C177.526 28.684 177.766 28.764 178.065 28.86C178.577 29.0307 178.998 29.2013 179.329 29.372C179.659 29.532 179.947 29.7667 180.193 30.076C180.438 30.3747 180.561 30.764 180.561 31.244C180.561 31.6707 180.433 32.0707 180.177 32.444C179.921 32.8173 179.553 33.116 179.073 33.34C178.593 33.564 178.027 33.676 177.377 33.676Z" fill="white"/>
</svg>
